<svg id="Layer_1" data-name="Layer 1" xmlns="http://www.w3.org/2000/svg" xmlns:xlink="http://www.w3.org/1999/xlink" viewBox="0 0 593.42 225.09"><defs><style>.cls-1{fill:#030304;}.cls-2{fill:url(#linear-gradient);}</style><linearGradient id="linear-gradient" x1="338.63" y1="74.31" x2="511.12" y2="74.31" gradientUnits="userSpaceOnUse"><stop offset="0" stop-color="#0a38eb"/><stop offset="1" stop-color="#007ffd"/></linearGradient></defs><title>logo_</title><g id="tX6jQm.tif"><path class="cls-1" d="M564.9,159.53c-.53,0-1.07.08-1.6.08H518.5c.21,1.41.35,2.74.6,4,1.29,6.64,5.77,11.62,11.91,12.62,8.27,1.34,15.59-.64,20.52-8.65l1.4-2.29,11.24,6.25c-5.24,9.26-12.61,15.41-23.39,16.9-6.56.9-13,.54-19.12-2.12-8.93-3.88-14.17-10.88-16.12-20.28-1.45-7-1.34-14,1.38-20.74,4.18-10.28,11.77-16.49,22.82-18.22a34.91,34.91,0,0,1,18.44,1.82c8.36,3.3,13.36,9.61,15.43,18.22.61,2.58.7,5.28,1,7.92a4.25,4.25,0,0,0,.24.74Zm-14-8.95c-.68-4.71-2.54-8.58-6.9-10.69a19.18,19.18,0,0,0-15.91-.52c-5,2-7.31,6.19-8.61,11.21Z"/><path class="cls-1" d="M295.65,186.45H282.37v-6.78a75.56,75.56,0,0,1-5.76,5.27c-4.41,3.31-9.57,4.2-14.95,3.93a24.1,24.1,0,0,1-13.08-4.18,25.92,25.92,0,0,1-10.36-16.09c-1.92-8.4-2-16.82,1.08-25,3-8,8.34-13.88,16.89-16.06,6.8-1.73,13.47-1.25,19.61,2.54a17.33,17.33,0,0,1,6.52,7.63V92.15h13.33Zm-12.89-29.14c-.13-1.56-.19-3.12-.41-4.67-1-6.89-5.08-13.31-13.76-14-7.5-.6-13.55,2.74-16.21,10.08a28.41,28.41,0,0,0-.95,15.07c1.35,7.28,5.64,12.62,13.86,13.18,5.48.37,10-1.41,13.39-5.85C281.77,167,282.74,162.32,282.76,157.31Z"/><path class="cls-1" d="M424.34,137.16v-8.42H437.6v57.7H424.33v-6.91c-1.37,1.42-2.56,2.82-3.92,4-4.91,4.35-10.77,5.68-17.19,5.26a24.1,24.1,0,0,1-12.49-4,25.61,25.61,0,0,1-10.37-15.67c-2.15-8.9-2.19-17.79,1.31-26.38,3.09-7.59,8.36-13.09,16.52-15.17,6.45-1.65,12.81-1.25,18.78,2A19.33,19.33,0,0,1,424.34,137.16Zm-31.53,20.73c.24,2.12.34,4.26.75,6.35,2,10.06,9.67,14.13,18.6,12.37,5.2-1,8.51-4.44,10.6-9.09,2.23-5,2.39-10.17,1.51-15.45-1.15-6.94-5.52-12.79-13.63-13.43-6.75-.54-12.66,2.09-15.68,8.68A26.75,26.75,0,0,0,392.81,157.89Z"/><path class="cls-1" d="M357.78,165.32,369,171.58c-3.87,6.88-9,12.37-16.48,15.12a34.91,34.91,0,0,1-25.21,0c-9.45-3.66-14.93-10.9-16.94-20.7-1.47-7.14-1.32-14.3,1.56-21.08,4.24-10,11.78-16.09,22.65-17.77a35,35,0,0,1,17.86,1.6c9.14,3.41,14.3,10.24,16.31,19.62a49.6,49.6,0,0,1,.81,11.27H323.53c.17,8.81,5.42,16.87,15.5,17,4.37.07,8.52-.62,12.16-3.24a22.33,22.33,0,0,0,5.91-6.88C357.3,166.15,357.5,165.79,357.78,165.32Zm-2.11-14.74a12.62,12.62,0,0,0-6.93-10.76,19.18,19.18,0,0,0-16.48-.13c-4.59,2.07-6.72,6.14-7.93,10.89Z"/><path class="cls-1" d="M142.69,165.47l11,6.11c-3.95,7-9.21,12.59-16.92,15.3a35,35,0,0,1-24.3,0C102.6,183.2,97,175.79,95,165.63c-1.44-7.32-1.18-14.61,2-21.5,4.36-9.58,11.78-15.39,22.29-17a35,35,0,0,1,18.67,1.9c8.57,3.47,13.46,10.06,15.45,18.93a49.2,49.2,0,0,1,1,11.61H108.2c0,7.5,4.2,15.63,13,16.82,5.94.79,11.58,0,16.1-4.29A63.9,63.9,0,0,0,142.69,165.47Zm-33.64-14.89h31.26a12.81,12.81,0,0,0-9.95-11.89,21.87,21.87,0,0,0-8.93-.43C115.34,139.17,110.63,143.1,109.05,150.58Z"/><path class="cls-1" d="M181.27,186.43H167.93V128.75h12.42v9.1c.39-.45.6-.65.76-.87a23.65,23.65,0,0,1,18.22-10.13c4.66-.35,9.24-.19,13.6,1.56,6.46,2.58,10.19,7.48,10.42,14.37.38,11.48.3,23,.4,34.47,0,3,0,6.08,0,9.18H210.3v-1.27c0-10,.1-19.94-.06-29.91a58.83,58.83,0,0,0-1.18-9.88c-.73-3.93-3.32-6.15-7.23-6.93a19.4,19.4,0,0,0-12.52,1.39,12.82,12.82,0,0,0-7.7,11.86c-.25,11.12-.24,22.24-.34,33.36Z"/><path class="cls-1" d="M493.05,136.17l-9.43,6.48c-2.81-6.3-10-6.79-14-5.16-3.75,1.52-5.81,6.52-1.51,9.85a29,29,0,0,0,8,4.06,72.57,72.57,0,0,1,12.2,5.5c11,6.54,9.55,23.26-1.4,28.82a30,30,0,0,1-11.95,3.08,33.94,33.94,0,0,1-13.5-1.55c-5.68-2-9.57-5.89-12.22-11.29l11-6a35.46,35.46,0,0,0,1.74,3.49c2.3,3.62,5.87,4.95,9.95,5.25a12,12,0,0,0,7.81-1.64c3.74-2.49,4.2-7.39.67-10.12a29.4,29.4,0,0,0-6.87-3.72,89.56,89.56,0,0,1-14.16-6.83c-10-6.38-8.88-20.45.84-26.28a24.31,24.31,0,0,1,10.58-3.38c5.35-.45,10.62-.21,15.51,2.37A15,15,0,0,1,493.05,136.17Z"/><path class="cls-1" d="M90.33,128.8c-10.12,20.41-20.22,40.75-30.4,61.29-10.17-20.53-20.24-40.86-30.41-61.42h1.17c4.12,0,8.25,0,12.37,0a1.3,1.3,0,0,1,1.47.9c4,9.37,8.18,18.68,12.14,28.07,1.34,3.19,2.24,6.57,3.31,9.79a46.92,46.92,0,0,1,1.36-4.53c2.58-6.33,5.23-12.63,7.9-18.92,2-4.79,4.1-9.56,6.2-14.31a1.69,1.69,0,0,1,1.14-.94c4.42-.07,8.83-.05,13.25,0A3.4,3.4,0,0,1,90.33,128.8Z"/><path class="cls-2" d="M504.55,58.81a27.19,27.19,0,0,0-15.5-11.41c-1.6-.46-3.25-.76-4.88-1.14H480a1.2,1.2,0,0,1-.41.2c-9.86.89-17.7,5.55-23.92,13-1.9,2.3-3.51,4.84-5.26,7.28l-5.91-4.26c-.1.3-.26.6-.34.89.08-.29.24-.59.34-.89l-3.88-2.32a17.31,17.31,0,0,0-17.08-.89,51.94,51.94,0,0,0-4.69,2.78c-.79-4.22-2.52-7.87-6.45-10.1A14.87,14.87,0,0,0,400,50.15c-6.59,1.74-11.65,5.78-15.8,11.05-.4.51-.62,1.07-1.53.9a13.17,13.17,0,0,1-5.11-2c-1.84-1.24-3.79-2.33-5.75-3.39a70.07,70.07,0,0,0-14.93-6.44c-3.76-1-6.91.13-9.81,2.33-.49.38-.56,1.33-.82,2,.61.08,1.22.19,1.84.24a1.28,1.28,0,0,0,.58-.19c3.13-1.49,6.36-1.18,9.57-.43,7.66,1.78,14.4,5.56,20.93,9.77a9.12,9.12,0,0,1,1,.83l-1.36,2.9c-2.6.33-5.12.65-7.64.95a2.83,2.83,0,0,1-.84-.16c-2.77-.65-5.52-1.37-8.31-1.91a51.59,51.59,0,0,0-15-1.16c-4,.4-6.28,3-8.31,6-.25.37.07,1.12.13,1.7a7.72,7.72,0,0,0,1.46-.31,2.89,2.89,0,0,0,1-.73A11.76,11.76,0,0,1,347.36,69a33.83,33.83,0,0,1,13.26-.16,80.81,80.81,0,0,1,10.12,2.24,12.23,12.23,0,0,0,5.67.7c.74-.13,1.5-.18,2.36-.27-.2.63-.35,1.1-.49,1.57-1.35,4.5-2.19,9.07-1.29,13.76.69,3.61,1.78,7.12,4.33,9.94,1.94,2.16,4.4,2.89,7.05,1.73,2.82-1.23,5.48-2.81,8.21-4.24a59.85,59.85,0,0,0,13.3-10.41,26.67,26.67,0,0,0,2.25,4.07c4.35,5.33,10.27,6.57,16.6,5.31,7.1-1.41,12.3-6.19,17.27-11.13a2.39,2.39,0,0,0-.13-.21,2.39,2.39,0,0,1,.13.21l5.05-5.21c4.59,4.14,9.16,8.18,13.62,12.33a52.78,52.78,0,0,0,18.23,11.36c4.36,1.56,8.85,2.44,13.46,1.15,7.82-2.2,12.37-7.64,14-15.3C512.46,76.49,510.15,67.23,504.55,58.81ZM409,75.87c-3.26,4.54-7.55,8.12-11.9,11.59l-1.33,1.09c-1.73,1-3.43,2.08-5.19,3.06A13.54,13.54,0,0,1,388,92.69c-2.51.74-4.13-.11-5-2.58a15.39,15.39,0,0,1-.47-7.56,39.29,39.29,0,0,1,7.14-18.2c3-4.14,6.93-7.27,12.09-8.47,4.12-1,7.57,0,10,3.73C414,65.55,412.52,71,409,75.87Zm36.31-3.14c-3.26,3.13-6.44,6.35-9.82,9.35a27.91,27.91,0,0,1-5.18,3.33c-3.05,1.69-6.27,1.54-9.46.45s-4.81-3.66-4.18-6.94c1-5.46,3.76-10,8.72-12.71a11.45,11.45,0,0,1,12,.22c2.07,1.23,4.08,2.57,6.12,3.86h0a17.51,17.51,0,0,1,1.64,1.45c.19.21.12.65.17,1l.12,3.22Zm58.87,11.09c-1.12,5.12-3.87,9.27-9.23,11-2.88.93-5.72.39-8.5-.47A40.44,40.44,0,0,1,472,86.27c-5.46-4.71-10.72-9.65-16.07-14.48-.15-.14-.34-.24-.6-.43,4.48-6.78,9.57-12.59,16.76-16.19,11.37-5.69,23.79-1.5,29.33,10C504.25,71,505.6,77.33,504.17,83.82Z"/></g></svg>